<svg width="40" height="40" viewBox="0 0 40 40" fill="none" xmlns="http://www.w3.org/2000/svg">
<path d="M19.9992 32.9492H38.8281C39.4753 32.9492 40 33.4739 40 34.1211V38.8281C40 39.4753 39.4753 40 38.8281 40H19.9992C19.352 40 18.8273 39.4753 18.8273 38.8281V34.1211C18.8273 33.4739 19.3519 32.9492 19.9992 32.9492Z" fill="#8492A4"/>
<path d="M1.03093 30.2986L13.5232 17.8068L18.5091 22.7924L6.01683 35.2842C5.32954 35.9715 4.42669 36.3152 3.52392 36.3152C2.62115 36.3152 1.7183 35.9716 1.03101 35.2842C-0.343656 33.9097 -0.343656 31.6731 1.03093 30.2986Z" fill="#8492A4"/>
<path d="M13.5067 14.4793L21.8198 6.16649L30.1467 14.4931L21.8336 22.8058L13.5067 14.4793Z" fill="#8492A4"/>
<path d="M34.3021 15.314L35.9733 16.9851C36.4309 17.4427 36.4309 18.1847 35.9733 18.6424L25.9877 28.6275C25.7589 28.8563 25.4589 28.9708 25.1591 28.9708C24.8592 28.9708 24.5592 28.8564 24.3305 28.6275L22.6593 26.9564C22.2016 26.4988 22.2016 25.7568 22.6593 25.2991L32.6448 15.3141C33.1025 14.8563 33.8444 14.8563 34.3021 15.314Z" fill="#8492A4"/>
<path d="M11.0165 13.6567C10.5588 14.1144 9.81682 14.1144 9.35914 13.6567L7.68798 11.9856C7.23031 11.528 7.23031 10.786 7.68798 10.3284L17.6735 0.343213C18.131 -0.114365 18.873 -0.114443 19.3308 0.343213L21.002 2.01431C21.4596 2.47196 21.4596 3.21391 21.002 3.67157L11.0165 13.6567Z" fill="#8492A4"/>
</svg>
