<svg width="43" height="43" viewBox="0 0 43 43" fill="none" xmlns="http://www.w3.org/2000/svg">
<path d="M38.6059 28.4589C38.6035 26.5733 37.885 24.7589 36.5957 23.3829C35.3064 22.0068 33.5426 21.1718 31.6611 21.0468V9.0982C31.661 8.94231 31.599 8.79283 31.4887 8.68264L26.7577 3.95163C26.6475 3.84136 26.4981 3.77937 26.3422 3.7793H4.98193C4.90472 3.77925 4.82825 3.79443 4.75691 3.82396C4.68556 3.85349 4.62073 3.89679 4.56613 3.95139C4.51153 4.00599 4.46823 4.07081 4.4387 4.14216C4.40918 4.21351 4.394 4.28997 4.39404 4.36719V38.6328C4.394 38.71 4.40918 38.7865 4.4387 38.8578C4.46823 38.9292 4.51153 38.994 4.56613 39.0486C4.62073 39.1032 4.68556 39.1465 4.75691 39.176C4.82825 39.2056 4.90472 39.2207 4.98193 39.2207H31.0742C31.1514 39.2207 31.2279 39.2056 31.2992 39.176C31.3706 39.1465 31.4354 39.1032 31.49 39.0486C31.5446 38.994 31.5879 38.9292 31.6174 38.8578C31.647 38.7865 31.6621 38.71 31.6621 38.6328V35.8711C33.5434 35.7457 35.3069 34.9106 36.596 33.5346C37.885 32.1586 38.6034 30.3444 38.6059 28.4589ZM26.9301 5.78652L29.6539 8.5103H26.9301V5.78652ZM5.56982 38.0449V4.95508H25.7543V9.0982C25.7543 9.17541 25.7694 9.25188 25.799 9.32322C25.8285 9.39457 25.8718 9.4594 25.9264 9.514C25.981 9.56859 26.0458 9.6119 26.1172 9.64143C26.1885 9.67095 26.265 9.68613 26.3422 9.68609H30.4853V21.0633C28.6422 21.2347 26.9296 22.088 25.6828 23.4561C24.436 24.8243 23.7449 26.6086 23.7449 28.4596C23.7449 30.3106 24.436 32.095 25.6828 33.4631C26.9296 34.8312 28.6422 35.6846 30.4853 35.856V38.0456L5.56982 38.0449ZM31.175 34.7128C29.9382 34.7125 28.7292 34.3455 27.7009 33.6581C26.6727 32.9708 25.8713 31.994 25.3982 30.8512C24.925 29.7085 24.8014 28.4511 25.0428 27.2381C25.2843 26.025 25.88 24.9108 26.7547 24.0364C27.6294 23.1619 28.7437 22.5664 29.9568 22.3252C31.1698 22.084 32.4272 22.2079 33.5699 22.6813C34.7125 23.1547 35.6892 23.9562 36.3763 24.9847C37.0634 26.0131 37.4301 27.2221 37.4301 28.4589C37.4282 30.1172 36.7685 31.7069 35.5958 32.8794C34.4231 34.0518 32.8332 34.7112 31.175 34.7128Z" fill="#3D4857"/>
<path d="M22.059 23.6581H9.77039C9.61447 23.6581 9.46494 23.72 9.35468 23.8303C9.24443 23.9405 9.1825 24.09 9.1825 24.246C9.1825 24.4019 9.24443 24.5514 9.35468 24.6617C9.46494 24.7719 9.61447 24.8338 9.77039 24.8338H22.059C22.2149 24.8338 22.3644 24.7719 22.4747 24.6617C22.5849 24.5514 22.6469 24.4019 22.6469 24.246C22.6469 24.09 22.5849 23.9405 22.4747 23.8303C22.3644 23.72 22.2149 23.6581 22.059 23.6581Z" fill="#3D4857"/>
<path d="M9.77039 28.3588H17.1328C17.2887 28.3588 17.4382 28.2969 17.5485 28.1867C17.6587 28.0764 17.7207 27.9269 17.7207 27.771C17.7207 27.615 17.6587 27.4655 17.5485 27.3552C17.4382 27.245 17.2887 27.1831 17.1328 27.1831H9.77039C9.61447 27.1831 9.46494 27.245 9.35468 27.3552C9.24443 27.4655 9.1825 27.615 9.1825 27.771C9.1825 27.9269 9.24443 28.0764 9.35468 28.1867C9.46494 28.2969 9.61447 28.3588 9.77039 28.3588Z" fill="#3D4857"/>
<path d="M22.059 30.7081H9.77039C9.61447 30.7081 9.46494 30.77 9.35468 30.8802C9.24443 30.9905 9.1825 31.14 9.1825 31.2959C9.1825 31.4519 9.24443 31.6014 9.35468 31.7116C9.46494 31.8219 9.61447 31.8838 9.77039 31.8838H22.059C22.2149 31.8838 22.3644 31.8219 22.4747 31.7116C22.5849 31.6014 22.6469 31.4519 22.6469 31.2959C22.6469 31.14 22.5849 30.9905 22.4747 30.8802C22.3644 30.77 22.2149 30.7081 22.059 30.7081Z" fill="#3D4857"/>
<path d="M17.1328 34.232H9.77039C9.61447 34.232 9.46494 34.294 9.35468 34.4042C9.24443 34.5145 9.1825 34.664 9.1825 34.8199C9.1825 34.9758 9.24443 35.1254 9.35468 35.2356C9.46494 35.3459 9.61447 35.4078 9.77039 35.4078H17.1328C17.2887 35.4078 17.4382 35.3459 17.5485 35.2356C17.6587 35.1254 17.7207 34.9758 17.7207 34.8199C17.7207 34.664 17.6587 34.5145 17.5485 34.4042C17.4382 34.294 17.2887 34.232 17.1328 34.232Z" fill="#3D4857"/>
<path d="M9.77039 20.9121H26.3422C26.4194 20.9122 26.4959 20.897 26.5672 20.8675C26.6386 20.8379 26.7034 20.7946 26.758 20.74C26.8126 20.6854 26.8559 20.6206 26.8854 20.5493C26.9149 20.4779 26.9301 20.4014 26.9301 20.3242V11.9419C26.9301 11.8647 26.9149 11.7882 26.8854 11.7169C26.8559 11.6455 26.8126 11.5807 26.758 11.5261C26.7034 11.4715 26.6386 11.4282 26.5672 11.3987C26.4959 11.3692 26.4194 11.354 26.3422 11.354H9.77039C9.69317 11.354 9.6167 11.3692 9.54536 11.3987C9.47401 11.4282 9.40919 11.4715 9.35459 11.5261C9.29999 11.5807 9.25668 11.6455 9.22716 11.7169C9.19763 11.7882 9.18245 11.8647 9.1825 11.9419V20.3242C9.18245 20.4014 9.19763 20.4779 9.22716 20.5493C9.25668 20.6206 9.29999 20.6854 9.35459 20.74C9.40919 20.7946 9.47401 20.8379 9.54536 20.8675C9.6167 20.897 9.69317 20.9122 9.77039 20.9121ZM10.3583 12.5305H25.7543V19.7363H10.3583V12.5305Z" fill="#3D4857"/>
</svg>
