<svg width="55" height="55" viewBox="0 0 55 55" fill="none" xmlns="http://www.w3.org/2000/svg">
<path d="M27.5 55C42.6878 55 55 42.6878 55 27.5C55 12.3122 42.6878 0 27.5 0C12.3122 0 0 12.3122 0 27.5C0 42.6878 12.3122 55 27.5 55Z" fill="#52006F"/>
<path d="M28.0492 14.9383H26.9507L26.4814 39.3827H28.5185L28.0492 14.9383Z" fill="#DAAFE9"/>
<path d="M27.5 13.5803C27.2985 13.5803 27.1016 13.6599 26.9341 13.8091C26.7666 13.9584 26.6361 14.1704 26.559 14.4186C26.4819 14.6667 26.4617 14.9398 26.501 15.2032C26.5403 15.4667 26.6373 15.7086 26.7798 15.8986C26.9222 16.0885 27.1037 16.2178 27.3013 16.2702C27.4988 16.3226 27.7036 16.2957 27.8897 16.1929C28.0758 16.0902 28.2349 15.9161 28.3468 15.6928C28.4587 15.4694 28.5185 15.2069 28.5185 14.9383C28.5185 14.5781 28.4112 14.2327 28.2202 13.978C28.0292 13.7233 27.7701 13.5803 27.5 13.5803Z" fill="#DAAFE9"/>
<path d="M34.0578 38.7037H20.9423C20.6106 38.7037 20.2924 38.8098 20.0578 38.9985C19.8232 39.1873 19.6914 39.4433 19.6914 39.7102V40.7408H35.3087V39.7102C35.3087 39.4433 35.1769 39.1873 34.9423 38.9985C34.7077 38.8098 34.3895 38.7037 34.0578 38.7037V38.7037Z" fill="#DAAFE9"/>
<path d="M42.5921 17.8013C41.923 17.5432 41.2104 17.3999 40.488 17.3782C39.768 17.3704 39.0501 17.4544 38.354 17.628C36.984 17.9463 35.6908 18.3815 34.3848 18.7803C33.7738 18.9853 33.139 19.1206 32.494 19.1832C31.8682 19.2135 31.2413 19.1482 30.6375 18.9899C30.0272 18.83 29.45 18.5739 28.9303 18.2324C28.6704 18.0654 28.4237 17.8809 28.1919 17.6804C27.972 17.4871 27.768 17.2784 27.5816 17.0559V17.0317V17.0076V18.6192L27.7011 18.7078L27.5816 18.8085L27.428 18.6796L27.4536 18.5869V16.9753L27.428 16.9995V17.0237C27.2404 17.2489 27.0334 17.4592 26.8091 17.6522C26.5774 17.8527 26.3306 18.0372 26.0707 18.2042C25.55 18.5442 24.9731 18.8002 24.3635 18.9616C23.7563 19.1166 23.1264 19.1778 22.4984 19.143C21.8534 19.0803 21.2187 18.945 20.6077 18.7401C19.3017 18.3372 18.0043 17.906 16.6385 17.5878C15.9423 17.4141 15.2245 17.3301 14.5045 17.338C13.7815 17.3618 13.0688 17.5078 12.4004 17.7691C12.3659 17.7819 12.3344 17.8011 12.3077 17.8255C12.2811 17.85 12.2598 17.8791 12.2451 17.9113C12.2304 17.9435 12.2226 17.9781 12.2222 18.0132C12.2217 18.0482 12.2286 18.083 12.2425 18.1156C12.2701 18.1786 12.322 18.2295 12.3877 18.2579C12.4534 18.2863 12.5281 18.2901 12.5967 18.2687C13.2094 18.0571 13.8564 17.9481 14.5088 17.9463C15.1662 17.9669 15.8178 18.0699 16.4464 18.2525C17.7268 18.6031 19.0072 19.0825 20.2876 19.5297C20.6188 19.6521 20.9564 19.7583 21.2991 19.848C21.4702 19.9012 21.6459 19.9403 21.8241 19.9649C25.2812 20.9439 26.9457 19.7473 27.5218 19.1913C28.0895 19.7957 29.8052 21.0044 33.3562 19.9608C33.4636 19.942 33.5692 19.9151 33.672 19.8803C34.0235 19.7918 34.3697 19.6856 34.7091 19.562C35.9895 19.1148 37.2699 18.6353 38.5503 18.2848C39.1791 18.1028 39.8306 17.9998 40.488 17.9786C41.1404 17.9796 41.7875 18.0887 42.4 18.3009C42.4692 18.3235 42.5449 18.3203 42.6116 18.2918C42.6783 18.2633 42.7309 18.2118 42.7585 18.1478C42.7721 18.1148 42.7786 18.0795 42.7776 18.0441C42.7766 18.0086 42.7681 17.9737 42.7526 17.9415C42.7371 17.9092 42.7149 17.8801 42.6873 17.8561C42.6598 17.832 42.6274 17.8134 42.5921 17.8013V17.8013Z" fill="#DAAFE9"/>
<path d="M48.0069 29.1958C47.9698 29.1961 47.9334 29.1864 47.9015 29.1677C47.8697 29.1489 47.8437 29.1219 47.8263 29.0895L42.0992 18.2827L36.3721 29.0895C36.3597 29.1129 36.3427 29.1337 36.3222 29.1507C36.3016 29.1677 36.2779 29.1804 36.2523 29.1883C36.2268 29.1962 36.1999 29.1991 36.1732 29.1967C36.1466 29.1943 36.1207 29.1868 36.0969 29.1745C36.0732 29.1622 36.0522 29.1455 36.035 29.1251C36.0179 29.1048 36.0049 29.0814 35.9969 29.0561C35.989 29.0309 35.9861 29.0043 35.9885 28.9779C35.9909 28.9516 35.9985 28.926 36.0109 28.9025L41.9186 17.7515C41.9381 17.7217 41.9649 17.6971 41.9964 17.6802C42.0279 17.6632 42.0633 17.6543 42.0992 17.6543C42.1351 17.6543 42.1705 17.6632 42.202 17.6802C42.2336 17.6971 42.2603 17.7217 42.2798 17.7515L48.1875 28.9025C48.2119 28.95 48.2166 29.005 48.2005 29.0558C48.1844 29.1066 48.1489 29.1492 48.1015 29.1745L48.0069 29.1958Z" fill="#EBF0F3"/>
<path d="M42.4383 29.1975C42.3482 29.1975 42.2619 29.1768 42.1982 29.1399C42.1345 29.103 42.0988 29.053 42.0988 29.0008V17.851C42.0988 17.7988 42.1345 17.7488 42.1982 17.7119C42.2619 17.675 42.3482 17.6543 42.4383 17.6543C42.5283 17.6543 42.6147 17.675 42.6783 17.7119C42.742 17.7488 42.7778 17.7988 42.7778 17.851V29.0008C42.7778 29.053 42.742 29.103 42.6783 29.1399C42.6147 29.1768 42.5283 29.1975 42.4383 29.1975V29.1975Z" fill="#EBF0F3"/>
<path d="M36.6666 29.1975C36.7236 30.657 37.3566 32.0381 38.4327 33.0509C39.5089 34.0638 40.9445 34.6296 42.4382 34.6296C43.9319 34.6296 45.3676 34.0638 46.4437 33.0509C47.5199 32.0381 48.1529 30.657 48.2098 29.1975H36.6666Z" fill="#DAAFE9"/>
<path d="M48.4449 29.1975H36.4317C36.3139 29.1975 36.201 29.2333 36.1177 29.2969C36.0344 29.3606 35.9877 29.447 35.9877 29.537C35.9877 29.6271 36.0344 29.7134 36.1177 29.7771C36.201 29.8408 36.3139 29.8765 36.4317 29.8765H48.4449C48.5627 29.8765 48.6756 29.8408 48.7589 29.7771C48.8421 29.7134 48.8889 29.6271 48.8889 29.537C48.8889 29.447 48.8421 29.3606 48.7589 29.2969C48.6756 29.2333 48.5627 29.1975 48.4449 29.1975Z" fill="#9A17C9"/>
<path d="M18.1306 29.1957C18.0936 29.1961 18.0572 29.1864 18.0254 29.1677C17.9936 29.1489 17.9676 29.1219 17.9503 29.0895L12.2312 18.2827L6.49499 29.0895C6.46993 29.1368 6.42691 29.1724 6.37538 29.1883C6.32384 29.2043 6.26802 29.1993 6.2202 29.1745C6.17237 29.1497 6.13645 29.1071 6.12035 29.0561C6.10425 29.0051 6.10927 28.9499 6.13433 28.9025L12.0509 17.7515C12.0703 17.7217 12.097 17.6971 12.1285 17.6802C12.16 17.6632 12.1953 17.6543 12.2312 17.6543C12.2671 17.6543 12.3024 17.6632 12.3339 17.6802C12.3654 17.6971 12.3921 17.7217 12.4115 17.7515L18.3109 28.9025C18.3353 28.95 18.34 29.005 18.3239 29.0558C18.3079 29.1066 18.2724 29.1492 18.2251 29.1745L18.1306 29.1957Z" fill="#EBF0F3"/>
<path d="M12.5617 29.1975C12.4716 29.1975 12.3853 29.1768 12.3216 29.1399C12.2579 29.103 12.2222 29.053 12.2222 29.0008V17.851C12.2222 17.7988 12.2579 17.7488 12.3216 17.7119C12.3853 17.675 12.4716 17.6543 12.5617 17.6543C12.6517 17.6543 12.7381 17.675 12.8017 17.7119C12.8654 17.7488 12.9012 17.7988 12.9012 17.851V29.0008C12.9012 29.053 12.8654 29.103 12.8017 29.1399C12.7381 29.1768 12.6517 29.1975 12.5617 29.1975V29.1975Z" fill="#EBF0F3"/>
<path d="M6.79016 29.1975C6.84712 30.657 7.48012 32.0381 8.55628 33.0509C9.63244 34.0638 11.0681 34.6296 12.5618 34.6296C14.0555 34.6296 15.4911 34.0638 16.5673 33.0509C17.6434 32.0381 18.2764 30.657 18.3334 29.1975H6.79016Z" fill="#DAAFE9"/>
<path d="M18.5683 29.1975H6.55507C6.43732 29.1975 6.32439 29.2333 6.24112 29.2969C6.15786 29.3606 6.11108 29.447 6.11108 29.537C6.11108 29.6271 6.15786 29.7134 6.24112 29.7771C6.32439 29.8408 6.43732 29.8765 6.55507 29.8765H18.5683C18.6861 29.8765 18.799 29.8408 18.8823 29.7771C18.9655 29.7134 19.0123 29.6271 19.0123 29.537C19.0123 29.447 18.9655 29.3606 18.8823 29.2969C18.799 29.2333 18.6861 29.1975 18.5683 29.1975Z" fill="#C624FF"/>
</svg>
