<svg width="14" height="13" viewBox="0 0 14 13" fill="none" xmlns="http://www.w3.org/2000/svg">
<g clip-path="url(#clip0)">
<path d="M3.6123 3.64355H4.37402V4.40527H3.6123V3.64355Z" fill="#8492A4"/>
<path d="M3.6123 6.69043H4.37402V7.45215H3.6123V6.69043Z" fill="#8492A4"/>
<path d="M3.6123 5.16699H4.37402V5.92871H3.6123V5.16699Z" fill="#8492A4"/>
<path d="M0.56543 0V11.0957H2.85059V13L5.70703 11.0957H13.5654V0H0.56543ZM12.8037 10.334H5.47641L3.6123 11.5767V10.334H1.32715V0.761719H12.8037V10.334Z" fill="#8492A4"/>
<path d="M5.13574 6.69043H10.5186V7.45215H5.13574V6.69043Z" fill="#8492A4"/>
<path d="M5.13574 5.16699H10.5186V5.92871H5.13574V5.16699Z" fill="#8492A4"/>
<path d="M5.13574 3.64355H10.5186V4.40527H5.13574V3.64355Z" fill="#8492A4"/>
</g>
<defs>
<clipPath id="clip0">
<rect width="13" height="13" fill="white" transform="translate(0.56543)"/>
</clipPath>
</defs>
</svg>
