<svg width="30" height="30" viewBox="0 0 30 30" fill="none" xmlns="http://www.w3.org/2000/svg">
<path d="M26.9344 19.8551C26.9327 18.5395 26.4315 17.2737 25.5319 16.3136C24.6324 15.3536 23.4019 14.7711 22.0892 14.6838V6.34758C22.0891 6.23882 22.0459 6.13453 21.969 6.05766L18.6683 2.75695C18.5914 2.68002 18.4871 2.63677 18.3783 2.63672H3.47583C3.42196 2.63669 3.36861 2.64728 3.31883 2.66788C3.26906 2.68848 3.22383 2.71869 3.18574 2.75678C3.14764 2.79487 3.11743 2.8401 3.09683 2.88988C3.07623 2.93966 3.06564 2.993 3.06567 3.04688V26.9531C3.06564 27.007 3.07623 27.0603 3.09683 27.1101C3.11743 27.1599 3.14764 27.2051 3.18574 27.2432C3.22383 27.2813 3.26906 27.3115 3.31883 27.3321C3.36861 27.3527 3.42196 27.3633 3.47583 27.3633H21.6797C21.7336 27.3633 21.787 27.3527 21.8367 27.3321C21.8865 27.3115 21.9317 27.2813 21.9698 27.2432C22.0079 27.2051 22.0381 27.1599 22.0587 27.1101C22.0793 27.0603 22.0899 27.007 22.0899 26.9531V25.0263C23.4024 24.9389 24.6328 24.3562 25.5321 23.3962C26.4315 22.4362 26.9327 21.1705 26.9344 19.8551ZM18.7885 4.03711L20.6888 5.93742H18.7885V4.03711ZM3.88599 26.543V3.45703H17.9682V6.34758C17.9681 6.40145 17.9787 6.4548 17.9993 6.50457C18.0199 6.55435 18.0501 6.59958 18.0882 6.63767C18.1263 6.67576 18.1716 6.70597 18.2213 6.72658C18.2711 6.74718 18.3245 6.75777 18.3783 6.75773H21.2689V14.6953C19.983 14.8149 18.7881 15.4102 17.9183 16.3648C17.0484 17.3193 16.5663 18.5641 16.5663 19.8555C16.5663 21.147 17.0484 22.3918 17.9183 23.3463C18.7881 24.3008 19.983 24.8962 21.2689 25.0158V26.5434L3.88599 26.543ZM21.7501 24.2182C20.8871 24.218 20.0437 23.962 19.3263 23.4824C18.6089 23.0029 18.0498 22.3214 17.7197 21.5241C17.3896 20.7269 17.3034 19.8496 17.4718 19.0033C17.6403 18.157 18.0559 17.3797 18.6661 16.7696C19.2764 16.1595 20.0538 15.744 20.9001 15.5757C21.7465 15.4074 22.6237 15.4939 23.4209 15.8242C24.2181 16.1544 24.8995 16.7137 25.3789 17.4312C25.8582 18.1486 26.1141 18.9922 26.1141 19.8551C26.1127 21.012 25.6525 22.1211 24.8343 22.9391C24.0162 23.7571 22.907 24.2171 21.7501 24.2182Z" fill="#52006F"/>
<path d="M23.8527 17.8701C23.7621 17.8101 23.6514 17.7884 23.5449 17.8098C23.4383 17.8312 23.3446 17.8941 23.2844 17.9845L21.1614 21.1779L19.9501 19.8984C19.9139 19.8565 19.8696 19.8224 19.8199 19.7981C19.7701 19.7738 19.716 19.7599 19.6607 19.7571C19.6054 19.7543 19.5501 19.7627 19.4981 19.7818C19.4462 19.801 19.3986 19.8304 19.3584 19.8684C19.3181 19.9064 19.286 19.9522 19.2639 20.0029C19.2417 20.0537 19.2301 20.1084 19.2297 20.1638C19.2293 20.2191 19.2402 20.274 19.2615 20.3251C19.2829 20.3761 19.3144 20.4223 19.3541 20.4609L20.9195 22.1163C20.9578 22.1569 21.004 22.1892 21.0552 22.2113C21.1064 22.2334 21.1616 22.2448 21.2174 22.2447C21.2291 22.2447 21.2408 22.2447 21.2526 22.2431C21.314 22.2379 21.3734 22.2189 21.4265 22.1875C21.4795 22.156 21.5248 22.1131 21.5589 22.0617L23.9673 18.439C23.9972 18.3941 24.0179 18.3438 24.0283 18.2909C24.0387 18.238 24.0385 18.1836 24.0279 18.1308C24.0172 18.078 23.9963 18.0278 23.9662 17.983C23.9362 17.9383 23.8976 17.8999 23.8527 17.8701Z" fill="#52006F"/>
<path d="M15.3901 16.5056H6.81665C6.70787 16.5056 6.60355 16.5488 6.52663 16.6257C6.44971 16.7027 6.40649 16.807 6.40649 16.9158C6.40649 17.0246 6.44971 17.1289 6.52663 17.2058C6.60355 17.2827 6.70787 17.3259 6.81665 17.3259H15.3901C15.4989 17.3259 15.6032 17.2827 15.6801 17.2058C15.757 17.1289 15.8002 17.0246 15.8002 16.9158C15.8002 16.807 15.757 16.7027 15.6801 16.6257C15.6032 16.5488 15.4989 16.5056 15.3901 16.5056Z" fill="#52006F"/>
<path d="M6.81665 19.7852H11.9532C12.062 19.7852 12.1663 19.742 12.2432 19.6651C12.3202 19.5882 12.3634 19.4838 12.3634 19.3751C12.3634 19.2663 12.3202 19.162 12.2432 19.085C12.1663 19.0081 12.062 18.9649 11.9532 18.9649H6.81665C6.70787 18.9649 6.60355 19.0081 6.52663 19.085C6.44971 19.162 6.40649 19.2663 6.40649 19.3751C6.40649 19.4838 6.44971 19.5882 6.52663 19.6651C6.60355 19.742 6.70787 19.7852 6.81665 19.7852Z" fill="#52006F"/>
<path d="M15.3901 21.4242H6.81665C6.70787 21.4242 6.60355 21.4674 6.52663 21.5444C6.44971 21.6213 6.40649 21.7256 6.40649 21.8344C6.40649 21.9432 6.44971 22.0475 6.52663 22.1244C6.60355 22.2013 6.70787 22.2445 6.81665 22.2445H15.3901C15.4989 22.2445 15.6032 22.2013 15.6801 22.1244C15.757 22.0475 15.8002 21.9432 15.8002 21.8344C15.8002 21.7256 15.757 21.6213 15.6801 21.5444C15.6032 21.4674 15.4989 21.4242 15.3901 21.4242Z" fill="#52006F"/>
<path d="M11.9532 23.8828H6.81665C6.70787 23.8828 6.60355 23.926 6.52663 24.0029C6.44971 24.0799 6.40649 24.1842 6.40649 24.293C6.40649 24.4017 6.44971 24.5061 6.52663 24.583C6.60355 24.6599 6.70787 24.7031 6.81665 24.7031H11.9532C12.062 24.7031 12.1663 24.6599 12.2432 24.583C12.3202 24.5061 12.3634 24.4017 12.3634 24.293C12.3634 24.1842 12.3202 24.0799 12.2432 24.0029C12.1663 23.926 12.062 23.8828 11.9532 23.8828Z" fill="#52006F"/>
<path d="M6.81665 14.5899H18.3784C18.4322 14.5899 18.4856 14.5793 18.5354 14.5587C18.5851 14.5381 18.6304 14.5079 18.6685 14.4698C18.7066 14.4317 18.7368 14.3865 18.7574 14.3367C18.778 14.2869 18.7886 14.2336 18.7885 14.1797V8.33157C18.7886 8.2777 18.778 8.22435 18.7574 8.17458C18.7368 8.1248 18.7066 8.07957 18.6685 8.04148C18.6304 8.00339 18.5851 7.97318 18.5354 7.95258C18.4856 7.93197 18.4322 7.92139 18.3784 7.92142H6.81665C6.76278 7.92139 6.70943 7.93197 6.65965 7.95258C6.60988 7.97318 6.56465 8.00339 6.52656 8.04148C6.48846 8.07957 6.45825 8.1248 6.43765 8.17458C6.41705 8.22435 6.40646 8.2777 6.40649 8.33157V14.1797C6.40646 14.2336 6.41705 14.2869 6.43765 14.3367C6.45825 14.3865 6.48846 14.4317 6.52656 14.4698C6.56465 14.5079 6.60988 14.5381 6.65965 14.5587C6.70943 14.5793 6.76278 14.5899 6.81665 14.5899ZM7.22681 8.7422H17.9682V13.7695H7.22681V8.7422Z" fill="#52006F"/>
</svg>
