<svg width="24" height="15" viewBox="0 0 24 15" fill="none" xmlns="http://www.w3.org/2000/svg">
<path d="M20.6814 6.4258C21.351 5.95251 21.7944 5.16522 21.7944 4.2778C21.7944 2.82608 20.6271 1.65196 19.1838 1.65196C17.7404 1.65196 16.5731 2.82608 16.5731 4.2778C16.5731 5.16522 17.012 5.95251 17.6861 6.4258C17.1115 6.62604 16.5867 6.9355 16.1433 7.33597C15.5324 6.81262 14.813 6.41215 14.0258 6.1755C14.9804 5.593 15.6229 4.53265 15.6229 3.32667C15.6229 1.48813 14.1434 0 12.3155 0C10.4876 0 9.00803 1.49268 9.00803 3.32667C9.00803 4.53265 9.64599 5.593 10.6052 6.1755C9.82697 6.41215 9.11662 6.80807 8.51033 7.32232C8.06692 6.93095 7.55112 6.62604 6.98555 6.43035C7.65518 5.95706 8.09859 5.16977 8.09859 4.28235C8.09859 2.83063 6.93125 1.65651 5.48792 1.65651C4.04459 1.65651 2.87725 2.83063 2.87725 4.28235C2.87725 5.16977 3.31613 5.95706 3.99029 6.43035C2.19404 7.05382 0.904541 8.76949 0.904541 10.7855V11.0859C0.904541 11.095 0.91359 11.1041 0.922639 11.1041H6.45618C6.4245 11.3544 6.40641 11.6138 6.40641 11.8732V12.1826C6.40641 13.5206 7.48325 14.6037 8.81347 14.6037H15.8265C17.1568 14.6037 18.2336 13.5206 18.2336 12.1826V11.8732C18.2336 11.6138 18.2155 11.3544 18.1838 11.1041H23.7536C23.7626 11.1041 23.7717 11.095 23.7717 11.0859V10.7855C23.7626 8.76494 22.4776 7.04927 20.6814 6.4258ZM17.297 4.27325C17.297 3.22655 18.1431 2.37554 19.1838 2.37554C20.2244 2.37554 21.0705 3.22655 21.0705 4.27325C21.0705 5.30629 20.2425 6.1482 19.22 6.17095C19.2064 6.17095 19.1973 6.17095 19.1838 6.17095C19.1702 6.17095 19.1611 6.17095 19.1476 6.17095C18.1205 6.15275 17.297 5.31084 17.297 4.27325ZM9.72291 3.32667C9.72291 1.89315 10.8812 0.728136 12.3064 0.728136C13.7317 0.728136 14.89 1.89315 14.89 3.32667C14.89 4.71013 13.8086 5.84329 12.4557 5.92066C12.406 5.92066 12.3562 5.92066 12.3064 5.92066C12.2567 5.92066 12.2069 5.92066 12.1571 5.92066C10.8043 5.84329 9.72291 4.71013 9.72291 3.32667ZM3.5876 4.27325C3.5876 3.22655 4.4337 2.37554 5.47435 2.37554C6.515 2.37554 7.36109 3.22655 7.36109 4.27325C7.36109 5.30629 6.53309 6.1482 5.51054 6.17095C5.49697 6.17095 5.48792 6.17095 5.47435 6.17095C5.46077 6.17095 5.45172 6.17095 5.43815 6.17095C4.4156 6.15275 3.5876 5.31084 3.5876 4.27325ZM6.58286 10.3714H1.63752C1.84113 8.43273 3.46997 6.91274 5.4472 6.89909C5.45625 6.89909 5.4653 6.89909 5.47435 6.89909C5.4834 6.89909 5.49244 6.89909 5.50149 6.89909C6.4426 6.90364 7.30227 7.25406 7.96738 7.82291C7.31584 8.53284 6.83171 9.40661 6.58286 10.3714ZM17.5006 12.1826C17.5006 13.1156 16.745 13.8755 15.8175 13.8755H8.80442C7.87689 13.8755 7.12129 13.1156 7.12129 12.1826V11.8732C7.12129 9.04709 9.36547 6.73526 12.1571 6.65334C12.2069 6.65789 12.2612 6.65789 12.311 6.65789C12.3607 6.65789 12.415 6.65789 12.4648 6.65334C15.2564 6.73526 17.5006 9.04709 17.5006 11.8732V12.1826ZM18.039 10.3714C17.7902 9.41116 17.3151 8.55105 16.6681 7.84112C17.3377 7.25861 18.2065 6.90819 19.1566 6.89909C19.1657 6.89909 19.1747 6.89909 19.1838 6.89909C19.1928 6.89909 19.2019 6.89909 19.2109 6.89909C21.1881 6.91274 22.817 8.43273 23.0206 10.3714H18.039Z" fill="#8492A4"/>
</svg>
