<svg width="14" height="13" viewBox="0 0 14 13" fill="none" xmlns="http://www.w3.org/2000/svg">
<path d="M7.06543 0C5.17538 0 3.6377 1.53768 3.6377 3.42773C3.6377 5.31779 5.17538 6.85547 7.06543 6.85547C8.95548 6.85547 10.4932 5.31779 10.4932 3.42773C10.4932 1.53768 8.95548 0 7.06543 0ZM7.06543 6.09375C5.59539 6.09375 4.39941 4.89778 4.39941 3.42773C4.39941 1.95769 5.59539 0.761719 7.06543 0.761719C8.53547 0.761719 9.73145 1.95769 9.73145 3.42773C9.73145 4.89778 8.53547 6.09375 7.06543 6.09375Z" fill="#8492A4"/>
<path d="M8.1276 7.64258H6.00324C4.24616 7.64258 2.5121 8.45383 1.35254 10.1933V13H12.7783V10.1933C11.6204 8.45635 9.88686 7.64258 8.1276 7.64258ZM12.0166 12.2383H12.0166H2.11426V10.4263C3.00372 9.15797 4.44898 8.4043 6.00326 8.4043H8.12762C9.68191 8.4043 11.1271 9.15797 12.0166 10.4263V12.2383Z" fill="#8492A4"/>
</svg>
