<svg width="18" height="18" viewBox="0 0 18 18" fill="none" xmlns="http://www.w3.org/2000/svg">
<path d="M9 0C6.383 0 4.25391 2.1291 4.25391 4.74609C4.25391 7.36309 6.383 9.49219 9 9.49219C11.617 9.49219 13.7461 7.36309 13.7461 4.74609C13.7461 2.1291 11.617 0 9 0ZM9 8.4375C6.96456 8.4375 5.30859 6.78154 5.30859 4.74609C5.30859 2.71065 6.96456 1.05469 9 1.05469C11.0354 1.05469 12.6914 2.71065 12.6914 4.74609C12.6914 6.78154 11.0354 8.4375 9 8.4375Z" fill="#52006F"/>
<path d="M10.4707 10.582H7.52927C5.09639 10.582 2.69539 11.7053 1.08984 14.1138V18H16.9102V14.1138C15.3069 11.7088 12.9066 10.582 10.4707 10.582ZM15.8555 16.9453H15.8555H2.14453V14.4365C3.37609 12.6803 5.37722 11.6367 7.52931 11.6367H10.4707C12.6228 11.6367 14.6239 12.6803 15.8555 14.4365V16.9453Z" fill="#52006F"/>
</svg>
