<svg width="40" height="40" viewBox="0 0 40 40" fill="none" xmlns="http://www.w3.org/2000/svg">
<path d="M18.8269 34.1211V38.8281C18.8269 39.4753 19.3516 40 19.9988 40H38.828C39.4753 40 40 39.4753 40 38.8281V34.1211C40 33.4739 39.4753 32.9492 38.828 32.9492H19.9988C19.3515 32.9492 18.8269 33.4739 18.8269 34.1211ZM21.1708 35.293H37.6561V37.6562H21.1708V35.293Z" fill="#8492A4"/>
<path d="M1.03096 35.2842C1.71826 35.9715 2.62113 36.3151 3.52391 36.3151C4.4267 36.3151 5.32956 35.9715 6.01687 35.2842L20.1667 21.1352L21.8379 22.8062L21.0023 23.6418C20.5447 24.0994 20.5447 24.8414 21.0023 25.2991L24.331 28.6275C24.5598 28.8563 24.8597 28.9708 25.1596 28.9708C25.4595 28.9708 25.7595 28.8564 25.9882 28.6275L35.974 18.6423C36.4317 18.1847 36.4317 17.4427 35.974 16.9851L32.6453 13.6566C32.1877 13.199 31.4457 13.199 30.988 13.6566L30.1524 14.4922L21.8241 6.16438L22.6597 5.32883C22.8795 5.10907 23.003 4.81102 23.003 4.50024C23.003 4.18938 22.8795 3.89141 22.6597 3.67165L19.3311 0.343213C18.8735 -0.114443 18.1314 -0.114365 17.6738 0.343213L7.68814 10.3284C7.23045 10.786 7.23045 11.528 7.68814 11.9856L11.0167 15.314C11.2364 15.5338 11.5345 15.6573 11.8453 15.6573C12.1561 15.6573 12.4543 15.5338 12.674 15.314L13.5096 14.4784L15.1808 16.1496L1.03096 30.2986C-0.343653 31.6731 -0.343653 33.9097 1.03096 35.2842ZM20.1737 4.50024L11.8453 12.828L10.1741 11.157L18.5024 2.82915L20.1737 4.50024ZM23.4884 24.4705L31.8167 16.1427L33.4879 17.8137L25.1596 26.1416L23.4884 24.4705ZM23.4954 21.149L15.167 12.8212L20.1668 7.82172L28.4951 16.1495L23.4954 21.149ZM2.68832 31.9559L16.8382 17.8069L18.5094 19.478L4.35959 33.6269C3.89878 34.0876 3.1492 34.0876 2.68832 33.6269C2.22759 33.1662 2.22759 32.4166 2.68832 31.9559Z" fill="#8492A4"/>
</svg>
