<svg width="82" height="81" viewBox="0 0 82 81" fill="none" xmlns="http://www.w3.org/2000/svg">
<g clip-path="url(#clip0)">
<path d="M0.5 15.1875V75.9375C0.5 78.7345 2.76552 81 5.5625 81H76.4375C79.2345 81 81.5 78.7345 81.5 75.9375V15.1875H0.5Z" fill="#E1EAF7"/>
<path d="M0.5 0H81.5V20.25H0.5V0Z" fill="#B0BEC5"/>
<path d="M10.625 7.59375H15.6875V12.6562H10.625V7.59375Z" fill="white"/>
<path d="M20.75 7.59375H25.8125V12.6562H20.75V7.59375Z" fill="white"/>
<path d="M68.8438 12.6562H33.4062C32.009 12.6562 30.875 11.5223 30.875 10.125C30.875 8.72775 32.009 7.59375 33.4062 7.59375H68.8438C70.241 7.59375 71.375 8.72775 71.375 10.125C71.375 11.5223 70.241 12.6562 68.8438 12.6562Z" fill="#90A4AE"/>
<path d="M61.25 50.625C61.25 61.8086 52.1836 70.875 41 70.875C29.8164 70.875 20.75 61.8086 20.75 50.625C20.75 39.4414 29.8164 30.375 41 30.375C52.1836 30.375 61.25 39.4414 61.25 50.625Z" fill="#9877A4"/>
<path d="M50.3834 44.8209L46.8041 41.2416L41 47.0457L35.1959 41.2416L31.6166 44.8209L37.4207 50.625L31.6166 56.4291L35.1959 60.0084L41 54.2043L46.8041 60.0084L50.3834 56.4291L44.5793 50.625L50.3834 44.8209Z" fill="white"/>
</g>
<defs>
<clipPath id="clip0">
<rect width="81" height="81" fill="white" transform="translate(0.5)"/>
</clipPath>
</defs>
</svg>
