<svg width="40" height="40" viewBox="0 0 40 40" fill="none" xmlns="http://www.w3.org/2000/svg">
<path d="M19.9996 40C22.4811 40 24.4928 37.9883 24.4928 35.5068C24.4928 33.0252 22.4811 31.0135 19.9996 31.0135C17.518 31.0135 15.5063 33.0252 15.5063 35.5068C15.5063 37.9883 17.518 40 19.9996 40Z" fill="#52006F"/>
<path d="M19.9999 31.0138C17.6595 31.0138 15.7379 32.8034 15.5269 35.0887L20.4182 39.9801C22.7034 39.769 24.4931 37.8474 24.4931 35.507C24.4931 33.0254 22.4814 31.0138 19.9999 31.0138Z" fill="#52006F"/>
<path d="M34.7232 27.6714H5.27578C3.2646 27.6714 1.63428 29.3017 1.63428 31.313C1.63428 33.3241 3.2646 34.9545 5.27578 34.9545H34.7232C36.7344 34.9545 38.3648 33.3241 38.3648 31.313C38.3647 29.3017 36.7344 27.6714 34.7232 27.6714Z" fill="#52006F"/>
<path d="M32.6156 24.9239V17.6241C32.6156 11.7205 28.5607 6.76604 23.0846 5.38955C23.3969 4.85807 23.5778 4.23884 23.5778 3.57806C23.5777 1.60219 21.9755 0 19.9997 0C18.0238 0 16.4216 1.60219 16.4216 3.57806C16.4216 4.23892 16.6025 4.85807 16.9148 5.38955C11.4385 6.76604 7.38478 11.7206 7.38478 17.6241V24.9239C7.38478 26.5042 6.10368 27.7853 4.52344 27.7853H35.4759C33.8956 27.7853 32.6156 26.5042 32.6156 24.9239ZM19.9997 5.0083C19.2095 5.0083 18.5684 4.3683 18.5684 3.57814C18.5684 2.78689 19.2095 2.14688 19.9997 2.14688C20.7898 2.14688 21.4309 2.78689 21.4309 3.57814C21.4309 4.3683 20.7898 5.0083 19.9997 5.0083Z" fill="#52006F"/>
<path d="M1.67969 32.0366C1.95461 33.7755 3.45985 35.1052 5.27595 34.9407H34.7234C36.5396 35.1052 38.0447 33.7755 38.3197 32.0366H1.67969Z" fill="#52006F"/>
<path d="M32.6154 19.6965V23.9037L27.0132 18.3015L27.0336 18.3003C27.3215 18.2845 27.603 18.3748 27.8364 18.5442C28.9005 19.3167 30.2093 19.7721 31.6247 19.7721C31.9623 19.7722 32.2921 19.7459 32.6154 19.6965Z" fill="#52006F"/>
<path d="M31.6258 20.0551C35.3482 20.0551 38.3658 17.0375 38.3658 13.315C38.3658 9.59263 35.3482 6.57501 31.6258 6.57501C27.9034 6.57501 24.8857 9.59263 24.8857 13.315C24.8857 17.0375 27.9034 20.0551 31.6258 20.0551Z" fill="url(#paint0_linear)"/>
<path d="M30.105 10.6156C30.105 10.397 30.1933 10.2245 30.3699 10.0984L31.6819 8.83699C31.7743 8.74457 31.8879 8.69824 32.0224 8.69824C32.1738 8.69824 32.3103 8.73824 32.4324 8.81809C32.5542 8.89809 32.6153 9.00535 32.6153 9.13973V17.4906C32.6153 17.6252 32.5479 17.7324 32.4135 17.8123C32.2789 17.8923 32.1233 17.9321 31.9468 17.9321C31.7617 17.9321 31.604 17.8923 31.4737 17.8123C31.3433 17.7324 31.2783 17.6252 31.2783 17.4906V10.4769L30.8368 11.032C30.7526 11.1161 30.6602 11.1581 30.5593 11.1581C30.4331 11.1581 30.3258 11.1014 30.2376 10.9879C30.1491 10.8742 30.105 10.7502 30.105 10.6156Z" fill="white"/>
<defs>
<linearGradient id="paint0_linear" x1="28.8171" y1="6.62117" x2="34.4065" y2="19.9358" gradientUnits="userSpaceOnUse">
<stop stop-color="#D63305"/>
<stop offset="0.366" stop-color="#CF3004"/>
<stop offset="0.899" stop-color="#BC2602"/>
<stop offset="1" stop-color="#B72401"/>
</linearGradient>
</defs>
</svg>
