<svg width="41" height="41" viewBox="0 0 41 41" fill="none" xmlns="http://www.w3.org/2000/svg">
<path fill-rule="evenodd" clip-rule="evenodd" d="M0 20.5C0 9.17816 9.17816 0 20.5 0C31.8218 0 41 9.17816 41 20.5C41 31.8218 31.8218 41 20.5 41C9.17816 41 0 31.8218 0 20.5Z" fill="#52006F"/>
<g clip-path="url(#clip0)">
<path d="M20.5493 9.08082C17.379 9.07277 14.3303 10.2269 12.051 12.2981V9.08077C12.051 8.59433 11.6315 8.20001 11.114 8.20001C10.5965 8.20001 10.1771 8.59433 10.1771 9.08077V14.3652C10.177 14.7445 10.4351 15.0812 10.818 15.201L16.4397 16.9625C16.9313 17.1162 17.4624 16.8662 17.6259 16.4041C17.7894 15.942 17.5234 15.4428 17.0318 15.2891L12.8812 13.9909C16.7154 10.066 23.2086 9.80604 27.384 13.4102C31.5594 17.0144 31.836 23.118 28.0017 27.0429C24.1674 30.9678 17.6743 31.2278 13.4989 27.6236C10.939 25.4139 9.74253 22.1367 10.3195 18.9151C10.4103 18.4362 10.0709 17.9788 9.56147 17.8935C9.05206 17.8081 8.56548 18.1272 8.47467 18.6061C8.47369 18.6113 8.47275 18.6165 8.47187 18.6217C8.35971 19.2525 8.30328 19.8908 8.30322 20.5303C8.31085 26.8508 13.7597 31.9727 20.4836 31.98C27.2106 31.997 32.6787 26.8847 32.6968 20.5613C32.715 14.2379 27.2764 9.0979 20.5493 9.08082Z" fill="#FFEBEB"/>
</g>
<defs>
<clipPath id="clip0">
<rect width="25.2979" height="23.78" fill="white" transform="translate(7.85107 8.20001)"/>
</clipPath>
</defs>
</svg>
