<svg width="120" height="117" viewBox="0 0 120 117" fill="none" xmlns="http://www.w3.org/2000/svg">
<g clip-path="url(#clip0)">
<path d="M76.1808 26.3134H43.846C43.1092 26.3143 42.4028 26.6071 41.8817 27.1275C41.3607 27.648 41.0676 28.3536 41.0667 29.0896V100.871L40.6961 100.984L32.7639 103.41C32.3879 103.525 31.9819 103.486 31.6349 103.301C31.2878 103.117 31.0282 102.803 30.9129 102.428L7.3181 25.4454C7.20327 25.0699 7.24241 24.6643 7.4269 24.3176C7.6114 23.9709 7.92615 23.7115 8.302 23.5965L20.5256 19.858L55.9621 9.02367L68.1856 5.28514C68.3716 5.22796 68.5671 5.20797 68.7609 5.22634C68.9546 5.2447 69.1429 5.30105 69.3148 5.39216C69.4867 5.48327 69.639 5.60735 69.7629 5.7573C69.8867 5.90725 69.9798 6.08013 70.0367 6.26604L76.0678 25.9433L76.1808 26.3134Z" fill="#F2F2F2"/>
<path d="M83.2366 25.9432L75.9677 2.22762C75.8468 1.83247 75.6491 1.465 75.3859 1.1462C75.1228 0.827404 74.7993 0.56353 74.434 0.369655C74.0687 0.17578 73.6687 0.0557041 73.2569 0.0162924C72.8451 -0.0231192 72.4296 0.018906 72.034 0.139962L54.8485 5.39426L19.4138 16.2304L2.22827 21.4866C1.42992 21.7315 0.761449 22.2827 0.369588 23.0194C-0.0222729 23.756 -0.10551 24.6179 0.138152 25.4158L24.9817 106.466C25.1797 107.11 25.5791 107.674 26.1213 108.074C26.6635 108.475 27.3201 108.692 27.9946 108.692C28.3068 108.693 28.6172 108.646 28.9154 108.554L40.6961 104.952L41.0667 104.837V104.45L40.6961 104.563L28.8061 108.2C28.1014 108.415 27.3403 108.341 26.6897 107.996C26.0391 107.651 25.5522 107.062 25.3357 106.359L0.493983 25.3066C0.386717 24.958 0.349332 24.5918 0.383967 24.2289C0.418603 23.8659 0.524575 23.5133 0.695823 23.1913C0.867071 22.8693 1.10023 22.5842 1.38194 22.3524C1.66366 22.1205 1.98839 21.9464 2.33756 21.8401L19.5231 16.5839L54.9579 5.74961L72.1434 0.49346C72.4083 0.41273 72.6836 0.371568 72.9605 0.37131C73.5547 0.372643 74.133 0.564003 74.6104 0.917362C75.0879 1.27072 75.4396 1.76751 75.6139 2.33496L82.8494 25.9432L82.9643 26.3134H83.3497L83.2366 25.9432Z" fill="#3F3D56"/>
<path d="M22.7311 23.6569C22.3739 23.6566 22.0263 23.542 21.7391 23.33C21.452 23.1179 21.2404 22.8195 21.1355 22.4785L18.7489 14.6921C18.6847 14.4829 18.6625 14.2632 18.6834 14.0454C18.7043 13.8277 18.7679 13.6162 18.8707 13.423C18.9734 13.2298 19.1132 13.0588 19.2822 12.9196C19.4511 12.7804 19.6459 12.6758 19.8553 12.6118L52.4549 2.64291C52.8778 2.51401 53.3346 2.55797 53.7251 2.76514C54.1155 2.97232 54.4078 3.32578 54.5377 3.74794L56.9242 11.5345C57.0532 11.9569 57.0092 12.4132 56.8018 12.8032C56.5944 13.1932 56.2405 13.4851 55.8179 13.6149L23.2183 23.5838C23.0604 23.6321 22.8962 23.6568 22.7311 23.6569V23.6569Z" fill="#6C63FF"/>
<path d="M35.2336 8.32002C37.2803 8.32002 38.9394 6.6628 38.9394 4.61851C38.9394 2.57422 37.2803 0.916992 35.2336 0.916992C33.187 0.916992 31.5278 2.57422 31.5278 4.61851C31.5278 6.6628 33.187 8.32002 35.2336 8.32002Z" fill="#6C63FF"/>
<path d="M35.2333 6.96224C36.5293 6.96224 37.5799 5.91284 37.5799 4.61833C37.5799 3.32382 36.5293 2.27441 35.2333 2.27441C33.9373 2.27441 32.8867 3.32382 32.8867 4.61833C32.8867 5.91284 33.9373 6.96224 35.2333 6.96224Z" fill="white"/>
<path d="M111.662 107.746H49.0339C48.6164 107.746 48.2161 107.58 47.9208 107.285C47.6255 106.99 47.4595 106.59 47.459 106.173V31.2177C47.4595 30.8006 47.6255 30.4007 47.9208 30.1058C48.2161 29.8109 48.6164 29.645 49.0339 29.6445H111.662C112.079 29.645 112.48 29.8109 112.775 30.1058C113.07 30.4007 113.236 30.8006 113.237 31.2177V106.173C113.236 106.59 113.07 106.99 112.775 107.285C112.48 107.58 112.079 107.746 111.662 107.746V107.746Z" fill="#E6E6E6"/>
<path d="M82.8496 25.9424H43.8462C43.0112 25.9436 42.2107 26.2754 41.6202 26.8652C41.0297 27.455 40.6975 28.2546 40.6963 29.0887V104.563L41.0669 104.45V29.0887C41.0678 28.3527 41.3609 27.6471 41.8819 27.1266C42.4029 26.6062 43.1094 26.3134 43.8462 26.3125H82.9645L82.8496 25.9424ZM116.85 25.9424H43.8462C43.0112 25.9436 42.2107 26.2754 41.6202 26.8652C41.0297 27.455 40.6975 28.2546 40.6963 29.0887V113.853C40.6975 114.687 41.0297 115.487 41.6202 116.077C42.2107 116.667 43.0112 116.998 43.8462 117H116.85C117.685 116.998 118.486 116.667 119.076 116.077C119.667 115.487 119.999 114.687 120 113.853V29.0887C119.999 28.2546 119.667 27.455 119.076 26.8652C118.486 26.2754 117.685 25.9436 116.85 25.9424V25.9424ZM119.629 113.853C119.629 114.589 119.335 115.295 118.814 115.815C118.293 116.336 117.587 116.629 116.85 116.629H43.8462C43.1094 116.629 42.4029 116.336 41.8819 115.815C41.3609 115.295 41.0678 114.589 41.0669 113.853V29.0887C41.0678 28.3527 41.3609 27.6471 41.8819 27.1266C42.4029 26.6062 43.1094 26.3134 43.8462 26.3125H116.85C117.587 26.3134 118.293 26.6062 118.814 27.1266C119.335 27.6471 119.629 28.3527 119.629 29.0887V113.853Z" fill="#3F3D56"/>
<path d="M97.3946 34.086H63.3014C62.8593 34.0855 62.4354 33.9099 62.1228 33.5976C61.8101 33.2853 61.6343 32.862 61.6338 32.4203V24.277C61.6343 23.8354 61.8101 23.412 62.1228 23.0997C62.4354 22.7875 62.8593 22.6118 63.3014 22.6113H97.3946C97.8367 22.6118 98.2606 22.7875 98.5732 23.0997C98.8858 23.412 99.0617 23.8354 99.0622 24.277V32.4203C99.0617 32.862 98.8859 33.2853 98.5732 33.5976C98.2606 33.9099 97.8367 34.0855 97.3946 34.086V34.086Z" fill="#6C63FF"/>
<path d="M80.3484 23.1667C82.395 23.1667 84.0541 21.5095 84.0541 19.4652C84.0541 17.4209 82.395 15.7637 80.3484 15.7637C78.3017 15.7637 76.6426 17.4209 76.6426 19.4652C76.6426 21.5095 78.3017 23.1667 80.3484 23.1667Z" fill="#6C63FF"/>
<path d="M80.348 21.7191C81.5946 21.7191 82.6052 20.7097 82.6052 19.4645C82.6052 18.2194 81.5946 17.21 80.348 17.21C79.1014 17.21 78.0908 18.2194 78.0908 19.4645C78.0908 20.7097 79.1014 21.7191 80.348 21.7191Z" fill="white"/>
</g>
<defs>
<clipPath id="clip0">
<rect width="120" height="117" fill="white"/>
</clipPath>
</defs>
</svg>
